<?xml version="1.0" encoding="UTF-8"?>
<svg id="Layer_2" data-name="Layer 2" xmlns="http://www.w3.org/2000/svg" viewBox="0 0 84.21 14.28">
  <defs>
    <style>
      .cls-1 {
        fill: #fff;
      }

      .cls-2 {
        fill: none;
        stroke: #000;
        stroke-linecap: round;
        stroke-miterlimit: 10;
      }

      .cls-3 {
        fill: #8a1538;
      }
    </style>
  </defs>
  <g id="Layer_2-2" data-name="Layer 2">
    <g>
      <g>
        <g id="Layer_1-2" data-name="Layer 1-2">
          <g>
            <g>
              <path class="cls-2" d="m60.43,3.72c1.42,0,2.58,1.16,2.58,2.58,0,.32-.06.62-.16.9"/>
              <path class="cls-2" d="m61.87,8.44c-.41.28-.91.44-1.44.44-1.42,0-2.58-1.16-2.58-2.58,0-.82.39-1.56.99-2.03"/>
            </g>
            <g>
              <path class="cls-2" d="m59.44,5.83c.12-.25.34-.45.61-.54"/>
              <path class="cls-2" d="m61.25,5.72c.1.16.16.35.16.55,0,.57-.46,1.03-1.03,1.03-.23,0-.44-.07-.61-.2"/>
            </g>
            <circle class="cls-2" cx="60.43" cy="6.3" r="4.14"/>
          </g>
        </g>
        <g>
          <path d="m24.08,2.08h2.29c1.13,0,1.93.36,2.42,1.07s.73,1.77.73,3.15c0,.75-.06,1.4-.17,1.97-.11.57-.3,1.04-.55,1.43-.26.39-.59.68-1.01.88s-.93.3-1.53.3h-2.17V2.08Zm1.59,7.51h.56c.31,0,.57-.06.79-.18.21-.12.38-.31.51-.58.13-.26.22-.6.28-1.02s.08-.92.08-1.51c0-.5-.03-.94-.08-1.31-.05-.37-.14-.67-.27-.91-.13-.24-.29-.41-.51-.53-.21-.11-.48-.17-.8-.17h-.57v6.2Z"/>
          <path d="m31.99,8.67l-.44,2.21h-1.57l2.04-8.8h2.04l2.05,8.8h-1.65l-.43-2.21h-2.04Zm1.75-1.37c-.16-.85-.31-1.58-.44-2.2-.12-.62-.22-1.14-.29-1.55h-.04c-.05.41-.14.93-.27,1.57s-.28,1.37-.44,2.18h1.48Z"/>
          <path d="m38.22,8.42c.02.18.05.36.1.52.05.16.12.31.21.43.09.13.21.23.35.3.14.07.31.11.51.11.39,0,.66-.11.82-.33.16-.22.23-.49.23-.82,0-.18-.02-.35-.07-.49-.05-.15-.13-.29-.24-.42-.11-.13-.26-.25-.45-.38-.19-.12-.42-.25-.7-.38-.38-.18-.7-.36-.97-.53-.26-.17-.48-.36-.65-.57s-.29-.44-.37-.69c-.08-.25-.12-.54-.12-.87s.06-.67.17-.96c.11-.29.27-.54.49-.75.21-.21.47-.37.78-.49.31-.12.66-.17,1.06-.17.49,0,.9.08,1.22.23.32.15.57.35.76.58.19.24.32.5.39.8.07.29.12.58.12.87h-1.55c0-.13-.03-.27-.05-.41-.03-.14-.07-.28-.14-.4-.07-.12-.17-.23-.29-.31s-.29-.12-.49-.12c-.31,0-.54.09-.68.27-.14.18-.21.42-.21.73,0,.16.02.3.06.42s.11.24.21.34c.1.1.23.21.4.31.17.1.38.22.64.34.39.18.73.37,1.02.55s.53.39.71.62c.19.23.33.48.42.76.09.28.14.6.14.97s-.05.67-.16.98c-.11.31-.28.58-.5.81-.23.23-.51.41-.84.55-.34.13-.74.2-1.21.2-.51,0-.94-.07-1.27-.22-.34-.15-.61-.34-.81-.59s-.35-.53-.45-.84c-.1-.31-.15-.63-.16-.96h1.56Z"/>
          <path d="m43.16,2.08h1.57v3.48h2.12v-3.48h1.59v8.8h-1.59v-3.95h-2.12v3.95h-1.57V2.08Z"/>
          <path d="m49.96,2.08h2.68c.77,0,1.36.2,1.76.59.4.39.6.94.6,1.64,0,.28-.03.52-.09.73s-.14.39-.23.53c-.09.15-.2.27-.32.36-.12.1-.24.17-.36.21.16.06.31.15.46.25.15.11.29.25.41.42.12.17.22.38.29.62.07.24.11.53.11.86,0,.42-.06.79-.19,1.11s-.31.6-.55.81c-.23.22-.51.38-.84.49s-.68.17-1.07.17h-2.65V2.08Zm2.3,3.51c.49,0,.81-.09.98-.28s.25-.47.25-.85c0-.75-.39-1.12-1.18-1.12h-.81v2.25h.75Zm-.75,4.07h.94c.39,0,.69-.11.91-.33.22-.22.32-.57.32-1.07,0-.46-.1-.81-.31-1.07-.21-.25-.57-.38-1.09-.38h-.77v2.83Z"/>
        </g>
        <g>
          <path d="m67.02,8.68l-.44,2.21h-1.57l2.04-8.8h2.04l2.05,8.8h-1.65l-.43-2.21h-2.04Zm1.76-1.37c-.17-.85-.31-1.58-.44-2.2-.12-.62-.22-1.14-.29-1.55h-.04c-.05.41-.14.93-.27,1.57s-.28,1.37-.44,2.18h1.48Z"/>
          <path d="m73.47,7.13v3.76h-1.56V2.09h2.69c.81,0,1.43.2,1.86.61.43.41.65,1.01.65,1.79,0,.32-.04.6-.12.83-.08.23-.17.42-.29.58-.11.16-.24.29-.37.38-.13.09-.26.16-.37.21.34.16.59.41.75.73.16.32.25.81.25,1.46v.35c0,.25,0,.47,0,.64,0,.18.01.34.03.47s.03.27.04.38.03.23.05.34h-1.52c-.07-.2-.11-.46-.12-.79-.01-.33-.02-.68-.02-1.07v-.31c0-.29-.02-.54-.06-.75-.04-.2-.11-.37-.2-.49-.09-.12-.22-.21-.39-.27-.17-.06-.37-.08-.62-.08h-.68Zm0-1.27h.74c.48,0,.82-.1,1.02-.31.2-.21.3-.53.3-.98,0-.39-.09-.69-.28-.9s-.48-.31-.89-.31h-.9v2.5Z"/>
          <path d="m78.3,2.09h2.29c1.13,0,1.93.36,2.42,1.07s.73,1.77.73,3.15c0,.75-.06,1.4-.17,1.97-.11.57-.3,1.04-.55,1.43s-.59.68-1.01.88-.93.3-1.53.3h-2.17V2.09Zm1.59,7.51h.56c.31,0,.57-.06.79-.18.21-.12.38-.31.51-.58.13-.26.22-.6.28-1.02s.08-.92.08-1.51c0-.5-.03-.94-.08-1.31-.05-.37-.14-.67-.27-.91-.13-.24-.29-.41-.51-.53-.21-.11-.48-.17-.8-.17h-.57v6.2Z"/>
        </g>
      </g>
      <g>
        <rect class="cls-3" x="0" y="2.16" width="22.27" height="8.72" rx="4.36" ry="4.36"/>
        <g>
          <path class="cls-1" d="m2.37,10.88V2.08h1.78c.45,1.21.82,2.2,1.11,2.96s.51,1.37.68,1.81.28.77.35.98c.07.21.12.36.14.47h.01c-.03-.53-.06-1.11-.06-1.75,0-.64-.01-1.32-.01-2.05v-2.43h1.42v8.8h-1.72c-.47-1.3-.85-2.35-1.14-3.15-.29-.8-.52-1.44-.69-1.9-.17-.47-.29-.8-.36-1.01-.07-.2-.12-.36-.14-.46h-.01c.03.55.05,1.14.06,1.79,0,.65,0,1.37,0,2.17v2.56h-1.42Z"/>
          <path class="cls-1" d="m14.53,10.88h-1.2c-.02-.14-.03-.26-.04-.37-.01-.11-.02-.24-.03-.38-.2.36-.45.6-.74.72-.29.12-.63.19-1,.19-.46,0-.85-.1-1.17-.3-.32-.2-.58-.49-.78-.88-.2-.39-.34-.86-.43-1.41-.09-.55-.13-1.19-.13-1.91,0-1.6.26-2.77.78-3.5.52-.73,1.25-1.09,2.2-1.09.4,0,.74.05,1.01.16.28.1.51.24.7.4.19.16.33.34.44.53.11.2.19.39.25.58.06.19.09.37.1.53.01.16.02.28.03.37h-1.55c0-.09-.02-.2-.04-.34s-.07-.28-.14-.41c-.07-.13-.17-.25-.31-.34s-.32-.14-.55-.14c-.25,0-.46.08-.63.24s-.3.39-.4.68-.17.63-.21,1.03c-.04.4-.06.84-.06,1.31,0,.51.02.96.05,1.36.04.39.1.73.2.99s.22.47.38.61.37.21.62.21c.42,0,.7-.16.86-.48.16-.32.23-.81.23-1.46v-.49h-1.18v-1.34h2.74v4.94Z"/>
          <path class="cls-1" d="m17.07,8.42c.02.18.05.36.1.52.05.16.12.31.21.43.09.13.21.23.35.3.14.07.31.11.51.11.39,0,.66-.11.82-.33.16-.22.23-.49.23-.82,0-.18-.02-.35-.07-.49-.05-.15-.13-.29-.24-.42-.11-.13-.26-.25-.45-.38-.19-.12-.42-.25-.7-.38-.38-.18-.7-.36-.97-.53-.26-.17-.48-.36-.65-.57s-.29-.44-.37-.69c-.08-.25-.12-.54-.12-.87s.06-.67.17-.96c.11-.29.27-.54.49-.75.21-.21.47-.37.78-.49.31-.12.66-.17,1.06-.17.49,0,.9.08,1.22.23.32.15.57.35.76.58.19.24.32.5.39.8.07.29.11.58.12.87h-1.55c0-.13-.03-.27-.05-.41-.03-.14-.07-.28-.14-.4-.07-.12-.17-.23-.29-.31s-.29-.12-.49-.12c-.31,0-.54.09-.68.27-.14.18-.21.42-.21.73,0,.16.02.3.06.42s.11.24.21.34c.1.1.23.21.4.31.17.1.38.22.64.34.39.18.73.37,1.02.55.29.19.53.39.71.62.19.23.33.48.42.76.09.28.14.6.14.97s-.05.67-.16.98-.28.58-.5.81c-.23.23-.51.41-.85.55-.34.13-.74.2-1.21.2-.51,0-.94-.07-1.27-.22-.34-.15-.61-.34-.81-.59-.2-.25-.35-.53-.45-.84-.1-.31-.15-.63-.16-.96h1.56Z"/>
        </g>
      </g>
    </g>
  </g>
</svg>