<?xml version="1.0" encoding="UTF-8"?>
<svg id="Layer_2" data-name="Layer 2" xmlns="http://www.w3.org/2000/svg" viewBox="0 0 123.11 14.28">
  <defs>
    <style>
      .cls-1 {
        fill: #fff;
      }

      .cls-2 {
        fill: none;
        stroke: #000;
        stroke-linecap: round;
        stroke-miterlimit: 10;
      }

      .cls-3 {
        fill: #8a1538;
      }
    </style>
  </defs>
  <g id="Layer_2-2" data-name="Layer 2">
    <g>
      <g>
        <g id="Layer_1-2" data-name="Layer 1-2">
          <g>
            <g>
              <path class="cls-2" d="m99.33,3.72c1.42,0,2.58,1.16,2.58,2.58,0,.32-.06.62-.16.9"/>
              <path class="cls-2" d="m100.77,8.44c-.41.28-.91.44-1.44.44-1.42,0-2.58-1.16-2.58-2.58,0-.82.39-1.56.99-2.03"/>
            </g>
            <g>
              <path class="cls-2" d="m98.35,5.83c.12-.25.34-.45.61-.54"/>
              <path class="cls-2" d="m100.15,5.72c.1.16.16.35.16.55,0,.57-.46,1.03-1.03,1.03-.23,0-.44-.07-.61-.2"/>
            </g>
            <circle class="cls-2" cx="99.33" cy="6.3" r="4.14"/>
          </g>
        </g>
        <g>
          <path d="m62.98,2.08h2.29c1.13,0,1.93.36,2.42,1.07.49.71.73,1.77.73,3.15,0,.75-.06,1.4-.17,1.97s-.3,1.04-.55,1.43-.59.68-1.01.88-.93.3-1.53.3h-2.17V2.08Zm1.59,7.51h.56c.31,0,.57-.06.79-.18.21-.12.38-.31.51-.58.13-.26.22-.6.28-1.02.06-.42.08-.92.08-1.51,0-.5-.03-.94-.08-1.31-.05-.37-.14-.67-.27-.91-.12-.24-.29-.41-.51-.53-.21-.11-.48-.17-.8-.17h-.57v6.2Z"/>
          <path d="m70.9,8.67l-.44,2.21h-1.57l2.04-8.8h2.04l2.05,8.8h-1.65l-.43-2.21h-2.04Zm1.75-1.37c-.17-.85-.31-1.58-.44-2.2-.13-.62-.22-1.14-.29-1.55h-.04c-.05.41-.14.93-.27,1.57s-.28,1.37-.44,2.18h1.48Z"/>
          <path d="m77.13,8.42c.02.18.05.36.1.52.05.16.12.31.21.43.09.13.21.23.35.3.14.07.31.11.51.11.39,0,.66-.11.82-.33s.23-.49.23-.82c0-.18-.02-.35-.07-.49-.05-.15-.13-.29-.24-.42-.11-.13-.26-.25-.45-.38-.19-.12-.42-.25-.7-.38-.38-.18-.7-.36-.97-.53-.26-.17-.48-.36-.65-.57s-.29-.44-.37-.69c-.08-.25-.12-.54-.12-.87s.06-.67.17-.96c.11-.29.28-.54.49-.75.21-.21.47-.37.78-.49.31-.12.66-.17,1.06-.17.49,0,.9.08,1.22.23.32.15.57.35.76.58s.32.5.39.8c.07.29.11.58.12.87h-1.55c0-.13-.03-.27-.05-.41-.03-.14-.07-.28-.14-.4-.07-.12-.17-.23-.29-.31-.13-.08-.29-.12-.49-.12-.31,0-.54.09-.68.27-.14.18-.21.42-.21.73,0,.16.02.3.06.42s.11.24.21.34c.1.1.23.21.4.31.17.1.38.22.64.34.39.18.73.37,1.02.55.29.19.53.39.72.62.19.23.32.48.42.76.09.28.14.6.14.97s-.05.67-.16.98-.28.58-.5.81c-.22.23-.51.41-.84.55-.34.13-.74.2-1.21.2-.51,0-.94-.07-1.27-.22-.34-.15-.61-.34-.81-.59-.2-.25-.35-.53-.45-.84-.09-.31-.15-.63-.16-.96h1.56Z"/>
          <path d="m82.07,2.08h1.57v3.48h2.12v-3.48h1.59v8.8h-1.59v-3.95h-2.12v3.95h-1.57V2.08Z"/>
          <path d="m88.87,2.08h2.68c.77,0,1.36.2,1.76.59.4.39.6.94.6,1.64,0,.28-.03.52-.09.73s-.14.39-.23.53c-.09.15-.2.27-.32.36-.12.1-.24.17-.36.21.16.06.31.15.46.25.15.11.29.25.41.42.12.17.22.38.29.62.07.24.11.53.11.86,0,.42-.06.79-.19,1.11s-.31.6-.55.81c-.23.22-.51.38-.84.49s-.68.17-1.07.17h-2.65V2.08Zm2.3,3.51c.49,0,.81-.09.98-.28s.25-.47.25-.85c0-.75-.39-1.12-1.18-1.12h-.81v2.25h.75Zm-.75,4.07h.94c.39,0,.69-.11.91-.33.22-.22.32-.57.32-1.07,0-.46-.1-.81-.31-1.07-.21-.25-.57-.38-1.09-.38h-.77v2.83Z"/>
        </g>
        <g>
          <path d="m105.93,8.68l-.44,2.21h-1.57l2.04-8.8h2.04l2.05,8.8h-1.65l-.43-2.21h-2.04Zm1.76-1.37c-.17-.85-.31-1.58-.44-2.2-.12-.62-.22-1.14-.29-1.55h-.04c-.05.41-.14.93-.27,1.57s-.28,1.37-.44,2.18h1.48Z"/>
          <path d="m112.37,7.13v3.76h-1.56V2.09h2.69c.81,0,1.43.2,1.86.61.43.41.65,1.01.65,1.79,0,.32-.04.6-.12.83-.08.23-.17.42-.29.58-.11.16-.24.29-.37.38-.13.09-.26.16-.37.21.34.16.59.41.75.73.16.32.25.81.25,1.46v.35c0,.25,0,.47,0,.64,0,.18.01.34.03.47s.03.27.04.38.03.23.05.34h-1.52c-.07-.2-.11-.46-.12-.79-.01-.33-.02-.68-.02-1.07v-.31c0-.29-.02-.54-.06-.75-.04-.2-.11-.37-.2-.49-.09-.12-.22-.21-.39-.27-.17-.06-.37-.08-.62-.08h-.68Zm0-1.27h.74c.48,0,.82-.1,1.02-.31.2-.21.3-.53.3-.98,0-.39-.09-.69-.28-.9s-.48-.31-.89-.31h-.9v2.5Z"/>
          <path d="m117.21,2.09h2.29c1.13,0,1.93.36,2.42,1.07s.73,1.77.73,3.15c0,.75-.06,1.4-.17,1.97-.11.57-.3,1.04-.55,1.43s-.59.68-1.01.88-.93.3-1.53.3h-2.17V2.09Zm1.59,7.51h.56c.31,0,.57-.06.79-.18.21-.12.38-.31.51-.58.13-.26.22-.6.28-1.02s.08-.92.08-1.51c0-.5-.03-.94-.08-1.31-.05-.37-.14-.67-.27-.91-.13-.24-.29-.41-.51-.53-.21-.11-.48-.17-.8-.17h-.57v6.2Z"/>
        </g>
      </g>
      <g>
        <rect class="cls-3" x="0" y="2.16" width="61.18" height="8.72" rx="4.36" ry="4.36"/>
        <g>
          <path class="cls-1" d="m2.22,2.08h2.64c.36,0,.7.05,1.01.16.31.11.58.27.81.49.22.22.4.49.53.82.13.32.2.71.2,1.15,0,.85-.23,1.5-.7,1.94-.47.44-1.12.66-1.96.66h-.95v3.58h-1.57V2.08Zm1.57,3.96h.77c.44,0,.76-.11.96-.33.2-.22.3-.57.3-1.03,0-.44-.1-.77-.31-.99s-.49-.33-.86-.33h-.86v2.69Z"/>
          <path class="cls-1" d="m9.98,7.12v3.76h-1.56V2.08h2.69c.81,0,1.43.2,1.86.61.43.41.65,1.01.65,1.79,0,.32-.04.6-.12.83s-.17.42-.29.58c-.11.16-.24.29-.37.38-.13.09-.26.16-.37.21.34.16.59.41.75.73.17.32.25.81.25,1.46v.35c0,.25,0,.47,0,.64,0,.18.01.34.03.47.01.14.03.27.04.38.01.12.03.23.05.34h-1.52c-.07-.2-.11-.46-.12-.79s-.02-.68-.02-1.07v-.31c0-.29-.02-.54-.06-.75-.04-.2-.11-.37-.2-.49-.1-.12-.23-.21-.39-.27-.16-.06-.37-.08-.62-.08h-.68Zm0-1.27h.74c.48,0,.82-.1,1.02-.31.2-.21.31-.53.31-.98,0-.39-.09-.69-.28-.9-.19-.21-.48-.31-.89-.31h-.9v2.5Z"/>
          <path class="cls-1" d="m19.2,6.97h-2.83v2.56h3.17l-.19,1.35h-4.52V2.08h4.51v1.38h-2.96v2.14h2.83v1.37Z"/>
          <path class="cls-1" d="m20.5,2.08h2.29c1.13,0,1.93.36,2.42,1.07s.73,1.77.73,3.15c0,.75-.06,1.4-.17,1.97-.11.57-.3,1.04-.55,1.43-.26.39-.59.68-1.01.88s-.93.3-1.53.3h-2.17V2.08Zm1.59,7.51h.56c.31,0,.57-.06.79-.18.21-.12.38-.31.51-.58.13-.26.22-.6.28-1.02s.08-.92.08-1.51c0-.5-.03-.94-.08-1.31-.05-.37-.14-.67-.27-.91-.13-.24-.29-.41-.51-.53-.21-.11-.48-.17-.8-.17h-.57v6.2Z"/>
          <path class="cls-1" d="m28.74,2.08v8.8h-1.57V2.08h1.57Z"/>
          <path class="cls-1" d="m35.44,8.32c0,.07-.02.19-.04.35-.02.17-.06.35-.12.55-.06.2-.15.41-.27.62-.12.21-.27.41-.46.58-.19.18-.43.32-.71.44-.29.11-.63.17-1.04.17-.62,0-1.12-.13-1.49-.38-.37-.25-.65-.59-.85-1.01-.19-.42-.31-.91-.37-1.46-.06-.55-.08-1.12-.08-1.71,0-.71.05-1.35.16-1.9s.28-1.03.51-1.42c.23-.39.53-.69.9-.89.36-.2.8-.3,1.31-.3.39,0,.72.05,1,.15.27.1.5.23.69.4.19.16.34.35.45.55.11.2.2.4.25.6s.1.39.12.57.04.33.05.44h-1.56c0-.08-.02-.19-.03-.34s-.05-.3-.12-.46c-.06-.15-.17-.29-.3-.4-.13-.12-.32-.18-.57-.18s-.46.07-.61.22c-.16.15-.28.36-.38.64s-.16.62-.19,1.01c-.04.4-.05.85-.05,1.35,0,.42.02.82.05,1.21s.09.73.17,1.03.2.54.36.71c.16.18.36.27.62.27.23,0,.42-.06.55-.17.13-.11.24-.25.31-.4.07-.16.12-.31.14-.47.02-.16.04-.28.04-.36h1.56Z"/>
          <path class="cls-1" d="m37.8,3.46h-1.88v-1.38h5.34v1.38h-1.88v7.42h-1.57V3.46Z"/>
          <path class="cls-1" d="m44.5,1.95c.97,0,1.69.36,2.15,1.08.46.72.69,1.85.69,3.39s-.23,2.77-.69,3.51c-.46.74-1.2,1.11-2.21,1.11-.95,0-1.66-.37-2.13-1.1-.46-.73-.7-1.91-.7-3.54,0-.79.07-1.46.2-2.03s.32-1.03.57-1.38.55-.62.91-.79c.36-.17.76-.25,1.21-.25Zm-.03,1.33c-.48,0-.8.27-.98.82s-.27,1.31-.27,2.29c0,1.05.09,1.87.28,2.45s.51.88.97.88c.49,0,.81-.28.99-.84.17-.56.26-1.39.26-2.48,0-1.02-.09-1.8-.27-2.32s-.5-.79-.98-.79Z"/>
          <path class="cls-1" d="m50.12,7.12v3.76h-1.56V2.08h2.69c.81,0,1.43.2,1.86.61.43.41.65,1.01.65,1.79,0,.32-.04.6-.12.83-.08.23-.17.42-.29.58-.11.16-.24.29-.37.38-.13.09-.26.16-.37.21.34.16.59.41.75.73.16.32.25.81.25,1.46v.35c0,.25,0,.47,0,.64,0,.18.01.34.03.47s.03.27.04.38.03.23.05.34h-1.52c-.07-.2-.11-.46-.12-.79-.01-.33-.02-.68-.02-1.07v-.31c0-.29-.02-.54-.06-.75-.04-.2-.11-.37-.2-.49-.09-.12-.22-.21-.39-.27-.17-.06-.37-.08-.62-.08h-.68Zm0-1.27h.74c.48,0,.82-.1,1.02-.31.2-.21.3-.53.3-.98,0-.39-.09-.69-.28-.9s-.48-.31-.89-.31h-.9v2.5Z"/>
          <path class="cls-1" d="m56.16,8.42c.02.18.05.36.1.52.05.16.12.31.21.43.09.13.21.23.35.3.14.07.31.11.51.11.39,0,.66-.11.82-.33.16-.22.23-.49.23-.82,0-.18-.02-.35-.07-.49-.05-.15-.13-.29-.24-.42-.11-.13-.26-.25-.45-.38-.19-.12-.42-.25-.7-.38-.38-.18-.7-.36-.97-.53-.26-.17-.48-.36-.65-.57s-.29-.44-.37-.69c-.08-.25-.12-.54-.12-.87s.06-.67.17-.96c.11-.29.27-.54.49-.75.21-.21.47-.37.78-.49.31-.12.66-.17,1.06-.17.49,0,.9.08,1.22.23.32.15.57.35.76.58.19.24.32.5.39.8.07.29.11.58.12.87h-1.55c0-.13-.03-.27-.05-.41-.03-.14-.07-.28-.14-.4-.07-.12-.17-.23-.29-.31s-.29-.12-.49-.12c-.31,0-.54.09-.68.27-.14.18-.21.42-.21.73,0,.16.02.3.06.42s.11.24.21.34c.1.1.23.21.4.31.17.1.38.22.64.34.39.18.73.37,1.02.55.29.19.53.39.71.62.19.23.33.48.42.76.09.28.14.6.14.97s-.05.67-.16.98-.28.58-.5.81c-.23.23-.51.41-.85.55-.34.13-.74.2-1.21.2-.51,0-.94-.07-1.27-.22-.34-.15-.61-.34-.81-.59-.2-.25-.35-.53-.45-.84-.1-.31-.15-.63-.16-.96h1.56Z"/>
        </g>
      </g>
    </g>
  </g>
</svg>