<svg width="157" height="50" viewBox="0 0 157 50" fill="none" xmlns="http://www.w3.org/2000/svg">
<path d="M70.064 34H67.856C67.824 33.744 67.792 33.52 67.76 33.328C67.744 33.12 67.728 32.88 67.712 32.608C67.344 33.264 66.888 33.712 66.344 33.952C65.8 34.176 65.184 34.288 64.496 34.288C63.648 34.288 62.928 34.104 62.336 33.736C61.744 33.368 61.264 32.832 60.896 32.128C60.528 31.408 60.264 30.536 60.104 29.512C59.944 28.488 59.864 27.312 59.864 25.984C59.864 23.024 60.344 20.872 61.304 19.528C62.264 18.184 63.616 17.512 65.36 17.512C66.096 17.512 66.72 17.608 67.232 17.8C67.744 17.992 68.168 18.24 68.504 18.544C68.856 18.832 69.128 19.16 69.32 19.528C69.528 19.88 69.68 20.232 69.776 20.584C69.888 20.936 69.952 21.264 69.968 21.568C70 21.856 70.024 22.08 70.04 22.24H67.184C67.168 22.08 67.136 21.872 67.088 21.616C67.056 21.36 66.976 21.112 66.848 20.872C66.72 20.616 66.528 20.4 66.272 20.224C66.032 20.048 65.696 19.96 65.264 19.96C64.8 19.96 64.408 20.112 64.088 20.416C63.784 20.704 63.536 21.12 63.344 21.664C63.168 22.192 63.04 22.824 62.96 23.56C62.896 24.296 62.864 25.104 62.864 25.984C62.864 26.928 62.896 27.768 62.96 28.504C63.024 29.224 63.144 29.832 63.32 30.328C63.496 30.824 63.728 31.2 64.016 31.456C64.32 31.712 64.704 31.84 65.168 31.84C65.936 31.84 66.464 31.544 66.752 30.952C67.04 30.36 67.184 29.464 67.184 28.264V27.352H65V24.88H70.064V34ZM78.095 29.92L77.279 34H74.375L78.143 17.752H81.911L85.703 34H82.655L81.863 29.92H78.095ZM81.335 27.4C81.031 25.832 80.759 24.48 80.519 23.344C80.295 22.192 80.119 21.232 79.991 20.464H79.919C79.823 21.216 79.655 22.184 79.415 23.368C79.175 24.552 78.903 25.896 78.599 27.4H81.335ZM90.0119 17.752H92.9159V31.528H98.4839L98.1959 34H90.0119V17.752ZM110.917 26.776H105.685V31.504H111.541L111.181 34H102.829V17.752H111.157V20.296H105.685V24.256H110.917V26.776ZM116.209 34V17.752H119.497C120.329 19.992 121.009 21.816 121.537 23.224C122.065 24.632 122.481 25.752 122.785 26.584C123.089 27.4 123.305 28 123.433 28.384C123.561 28.768 123.649 29.056 123.697 29.248H123.721C123.657 28.272 123.617 27.2 123.601 26.032C123.585 24.848 123.577 23.584 123.577 22.24V17.752H126.193V34H123.025C122.161 31.6 121.457 29.664 120.913 28.192C120.385 26.704 119.961 25.528 119.641 24.664C119.337 23.8 119.121 23.184 118.993 22.816C118.865 22.432 118.777 22.144 118.729 21.952H118.705C118.769 22.96 118.801 24.064 118.801 25.264C118.817 26.464 118.825 27.8 118.825 29.272V34H116.209ZM134.526 34L130.494 17.752H133.638L135.126 24.64C135.366 25.744 135.582 26.856 135.774 27.976C135.982 29.08 136.134 30.056 136.23 30.904H136.278C136.326 30.504 136.398 30.056 136.494 29.56C136.59 29.064 136.694 28.544 136.806 28C136.918 27.456 137.038 26.904 137.166 26.344C137.294 25.784 137.414 25.24 137.526 24.712L138.966 17.752H142.014L137.934 34H134.526ZM148.407 29.464C148.439 29.8 148.503 30.12 148.599 30.424C148.695 30.728 148.823 31 148.983 31.24C149.159 31.464 149.375 31.648 149.631 31.792C149.903 31.92 150.223 31.984 150.591 31.984C151.311 31.984 151.815 31.784 152.103 31.384C152.391 30.984 152.535 30.48 152.535 29.872C152.535 29.536 152.487 29.232 152.391 28.96C152.311 28.688 152.167 28.432 151.959 28.192C151.751 27.952 151.471 27.72 151.119 27.496C150.783 27.272 150.359 27.04 149.847 26.8C149.143 26.464 148.543 26.136 148.047 25.816C147.567 25.496 147.167 25.144 146.847 24.76C146.543 24.376 146.319 23.952 146.175 23.488C146.031 23.024 145.959 22.488 145.959 21.88C145.959 21.24 146.063 20.656 146.271 20.128C146.479 19.584 146.775 19.12 147.159 18.736C147.559 18.352 148.039 18.056 148.599 17.848C149.175 17.624 149.831 17.512 150.567 17.512C151.479 17.512 152.231 17.656 152.823 17.944C153.415 18.216 153.879 18.576 154.215 19.024C154.567 19.456 154.807 19.944 154.935 20.488C155.079 21.032 155.159 21.568 155.175 22.096H152.319C152.303 21.856 152.271 21.608 152.223 21.352C152.175 21.08 152.087 20.832 151.959 20.608C151.831 20.368 151.647 20.176 151.407 20.032C151.183 19.872 150.887 19.792 150.519 19.792C149.943 19.792 149.519 19.96 149.247 20.296C148.991 20.632 148.863 21.08 148.863 21.64C148.863 21.928 148.895 22.192 148.959 22.432C149.039 22.656 149.167 22.864 149.343 23.056C149.535 23.248 149.783 23.44 150.087 23.632C150.407 23.824 150.807 24.032 151.287 24.256C152.007 24.592 152.631 24.936 153.159 25.288C153.703 25.624 154.143 26 154.479 26.416C154.831 26.832 155.087 27.304 155.247 27.832C155.423 28.344 155.511 28.936 155.511 29.608C155.511 30.248 155.407 30.856 155.199 31.432C155.007 31.992 154.703 32.488 154.287 32.92C153.871 33.336 153.351 33.672 152.727 33.928C152.103 34.168 151.359 34.288 150.495 34.288C149.551 34.288 148.767 34.152 148.143 33.88C147.519 33.608 147.015 33.248 146.631 32.8C146.263 32.336 145.991 31.816 145.815 31.24C145.639 30.664 145.543 30.072 145.527 29.464H148.407Z" fill="black"/>
<g clip-path="url(#clip0_86_71)">
<path d="M37.9581 32.1778C37.6833 32.1778 37.4084 32.132 37.1411 32.0327C35.9346 31.5822 35.3161 30.2383 35.7666 29.0241C36.2477 27.7413 36.4921 26.3898 36.4921 25C36.4921 18.6622 31.3302 13.5003 24.9924 13.5003C23.7019 13.5003 22.6558 12.4542 22.6558 11.1637C22.6558 9.87327 23.7019 8.82715 24.9924 8.82715C33.9111 8.82715 41.1652 16.0813 41.1652 25C41.1652 26.9472 40.8216 28.8485 40.1497 30.6582C39.7984 31.5974 38.905 32.1778 37.9581 32.1778Z" fill="black"/>
<path d="M25 41.1653C16.0813 41.1653 8.82715 33.9112 8.82715 24.9924C8.82715 19.9833 11.0874 15.3406 15.0352 12.2557C16.0507 11.4616 17.5168 11.6372 18.3186 12.6528C19.1127 13.6683 18.9371 15.1344 17.9215 15.9362C15.1115 18.1354 13.508 21.4341 13.508 24.9924C13.508 31.3302 18.6698 36.4921 25.0077 36.4921C27.3137 36.4921 29.5358 35.8125 31.4371 34.5297C32.5061 33.8043 33.957 34.0868 34.6824 35.1558C35.4078 36.2249 35.1253 37.6757 34.0562 38.4011C31.3837 40.2108 28.2529 41.1653 25.0153 41.1653H25Z" fill="black"/>
<path d="M19.7312 24.8167C19.3953 24.8167 19.0516 24.7404 18.7233 24.5876C17.5626 24.0302 17.0663 22.6328 17.6237 21.4722C18.5553 19.5327 20.2581 18.036 22.3045 17.3717C23.5339 16.9746 24.8473 17.6466 25.2444 18.876C25.6414 20.1054 24.9695 21.4187 23.7401 21.8158C22.9078 22.0831 22.2129 22.6939 21.8387 23.4804C21.434 24.3204 20.6017 24.8091 19.7312 24.8091V24.8167Z" fill="black"/>
<path d="M24.7252 32.7351C23.03 32.7351 21.4112 32.2006 20.052 31.2003C19.0135 30.4367 18.7921 28.9706 19.5633 27.9322C20.3269 26.8937 21.793 26.6722 22.8315 27.4434C23.3812 27.8482 24.0379 28.0696 24.7252 28.0696C26.4891 28.0696 27.9246 26.634 27.9246 24.8701C27.9246 24.2669 27.7566 23.6713 27.4359 23.1673C26.7487 22.0754 27.0694 20.6322 28.1613 19.945C29.2533 19.2577 30.6964 19.5784 31.3837 20.6704C32.1778 21.9303 32.5978 23.3811 32.5978 24.8701C32.5978 29.2073 29.07 32.7428 24.7252 32.7428V32.7351Z" fill="black"/>
<path d="M25 49.9924C11.2172 49.9924 0 38.7828 0 25C0 11.2172 11.2172 0 25 0C38.7828 0 50 11.2172 50 25C50 38.7828 38.7828 50 25 50V49.9924ZM25 5.59713C14.3097 5.59713 5.6124 14.2944 5.6124 24.9847C5.6124 35.675 14.3097 44.3723 25 44.3723C35.6903 44.3723 44.3876 35.675 44.3876 24.9847C44.3876 14.2944 35.6903 5.60476 25 5.60476V5.59713Z" fill="black"/>
</g>
<defs>
<clipPath id="clip0_86_71">
<rect width="50" height="50" fill="white"/>
</clipPath>
</defs>
</svg>
