<svg xmlns="http://www.w3.org/2000/svg" id="Layer_2" viewBox="0 0 107 107"><defs fill="#262626"><style>.cls-1{stroke:#070707;stroke-width:12px;}.cls-1,.cls-2{fill:none;stroke-linecap:round;stroke-miterlimit:10;}.cls-2{stroke:#050505;stroke-width:10px;}</style></defs><g id="Layer_1-2"><g><g><path class="cls-2" d="M53.5,23.89c16.35,0,29.61,13.26,29.61,29.61,0,3.64-.66,7.14-1.86,10.36" fill="#262626"/><path class="cls-2" d="M70.06,78.05c-4.73,3.19-10.42,5.06-16.56,5.06-16.35,0-29.61-13.26-29.61-29.61,0-9.47,4.45-17.91,11.37-23.33" fill="#262626"/></g><g><path class="cls-2" d="M42.23,48.11c1.39-2.91,3.94-5.16,7.04-6.17" fill="#262626"/><path class="cls-2" d="M62.94,46.89c1.16,1.83,1.83,4,1.83,6.32,0,6.54-5.3,11.84-11.84,11.84-2.63,0-5.06-.86-7.03-2.31" fill="#262626"/></g><circle class="cls-1" cx="53.5" cy="53.5" r="47.5" fill="#262626"/></g></g></svg>