<?xml version="1.0" encoding="UTF-8"?>
<svg id="Layer_2" data-name="Layer 2" xmlns="http://www.w3.org/2000/svg" xmlns:xlink="http://www.w3.org/1999/xlink" viewBox="0 0 161.68 50">
  <defs>
    <style>
      .cls-1 {
        font-size: 24px;
      }

      .cls-1, .cls-2 {
        font-family: AcuminProCond-Bold, 'Acumin Pro Condensed';
        font-weight: 700;
      }

      .cls-3 {
        clip-path: url(#clippath);
      }

      .cls-4 {
        fill: none;
      }

      .cls-2 {
        font-size: 14px;
      }
    </style>
    <clipPath id="clippath">
      <rect class="cls-4" width="50" height="50"/>
    </clipPath>
  </defs>
  <g id="Layer_1-2" data-name="Layer 1">
    <g>
      <g class="cls-3">
        <g>
          <path d="m37.96,32.18c-.27,0-.55-.05-.82-.15-1.21-.45-1.83-1.79-1.37-3.01.48-1.28.73-2.63.73-4.02,0-6.34-5.16-11.5-11.5-11.5-1.29,0-2.34-1.05-2.34-2.34s1.05-2.34,2.34-2.34c8.92,0,16.17,7.25,16.17,16.17,0,1.95-.34,3.85-1.02,5.66-.35.94-1.24,1.52-2.19,1.52Z"/>
          <path d="m25,41.17c-8.92,0-16.17-7.25-16.17-16.17,0-5.01,2.26-9.65,6.21-12.74,1.02-.79,2.48-.62,3.28.4.79,1.02.62,2.48-.4,3.28-2.81,2.2-4.41,5.5-4.41,9.06,0,6.34,5.16,11.5,11.5,11.5,2.31,0,4.53-.68,6.43-1.96,1.07-.73,2.52-.44,3.25.63.73,1.07.44,2.52-.63,3.25-2.67,1.81-5.8,2.76-9.04,2.76h-.02Z"/>
          <path d="m19.73,24.82c-.34,0-.68-.08-1.01-.23-1.16-.56-1.66-1.95-1.1-3.12.93-1.94,2.63-3.44,4.68-4.1,1.23-.4,2.54.27,2.94,1.5.4,1.23-.27,2.54-1.5,2.94-.83.27-1.53.88-1.9,1.66-.4.84-1.24,1.33-2.11,1.33h0Z"/>
          <path d="m24.73,32.74c-1.7,0-3.31-.53-4.67-1.53-1.04-.76-1.26-2.23-.49-3.27.76-1.04,2.23-1.26,3.27-.49.55.4,1.21.63,1.89.63,1.76,0,3.2-1.44,3.2-3.2,0-.6-.17-1.2-.49-1.7-.69-1.09-.37-2.54.73-3.22,1.09-.69,2.54-.37,3.22.73.79,1.26,1.21,2.71,1.21,4.2,0,4.34-3.53,7.87-7.87,7.87h0Z"/>
          <path d="m25,49.99C11.22,49.99,0,38.78,0,25S11.22,0,25,0s25,11.22,25,25-11.22,25-25,25h0Zm0-44.4C14.31,5.6,5.61,14.29,5.61,24.98s8.7,19.39,19.39,19.39,19.39-8.7,19.39-19.39S35.69,5.6,25,5.6h0Z"/>
        </g>
      </g>
      <text class="cls-1" transform="translate(51.15 26.95)"><tspan x="0" y="0">GALENVS</tspan></text>
      <text class="cls-2" transform="translate(52.03 38.02)"><tspan x="0" y="0">NGS DASHBOARD</tspan></text>
    </g>
  </g>
</svg>