<?xml version="1.0" encoding="utf-8"?>
<!-- Generator: Adobe Illustrator 27.5.0, SVG Export Plug-In . SVG Version: 6.00 Build 0)  -->
<svg version="1.1" id="Layer_2_00000093161506533991662450000005957347649142328977_"
	 xmlns="http://www.w3.org/2000/svg" xmlns:xlink="http://www.w3.org/1999/xlink" x="0px" y="0px" viewBox="0 0 78.4 10"
	 style="enable-background:new 0 0 78.4 10;" xml:space="preserve">
<style type="text/css">
	.st0{fill:#8A1538;}
	.st1{enable-background:new    ;}
	.st2{fill:#FFFFFF;}
	.st3{clip-path:url(#SVGID_00000065777300694344443050000006824991855006619798_);}
</style>
<g>
	<path class="st0" d="M4,0.9h11.3c2.2,0,4,1.8,4,4v0c0,2.2-1.8,4-4,4H4C1.8,9,0,7.2,0,5v0C0,2.7,1.8,0.9,4,0.9z"/>
	<g>
		<g class="st1">
			<path class="st2" d="M1.5,9.2V1h1.6c0.4,1.1,0.8,2,1,2.7S4.7,5,4.8,5.4C5,5.9,5.1,6.2,5.1,6.3c0.1,0.2,0.1,0.3,0.1,0.4h0
				c0-0.5-0.1-1-0.1-1.6c0-0.6,0-1.2,0-1.9V1h1.3v8.1H4.9C4.5,8,4.2,7,3.9,6.2C3.6,5.5,3.4,4.9,3.3,4.5C3.1,4.1,3,3.7,2.9,3.6
				C2.9,3.4,2.8,3.2,2.8,3.1h0c0,0.5,0,1.1,0.1,1.7c0,0.6,0,1.3,0,2v2.4H1.5z"/>
		</g>
		<g class="st1">
			<path class="st2" d="M12.8,9.2h-1.1c0-0.1,0-0.2,0-0.3c0-0.1,0-0.2,0-0.4c-0.2,0.3-0.4,0.6-0.7,0.7c-0.3,0.1-0.6,0.2-0.9,0.2
				C9.6,9.3,9.2,9.2,8.9,9C8.6,8.8,8.4,8.6,8.2,8.2C8,7.9,7.9,7.4,7.8,6.9S7.7,5.8,7.7,5.1c0-1.5,0.2-2.6,0.7-3.2c0.5-0.7,1.2-1,2-1
				c0.4,0,0.7,0,0.9,0.1c0.3,0.1,0.5,0.2,0.6,0.4c0.2,0.1,0.3,0.3,0.4,0.5c0.1,0.2,0.2,0.4,0.2,0.5s0.1,0.3,0.1,0.5
				c0,0.1,0,0.3,0,0.3h-1.4c0-0.1,0-0.2,0-0.3c0-0.1-0.1-0.3-0.1-0.4c-0.1-0.1-0.2-0.2-0.3-0.3s-0.3-0.1-0.5-0.1
				c-0.2,0-0.4,0.1-0.6,0.2S9.5,2.7,9.4,3c-0.1,0.3-0.2,0.6-0.2,1c0,0.4-0.1,0.8-0.1,1.2c0,0.5,0,0.9,0,1.3s0.1,0.7,0.2,0.9
				c0.1,0.2,0.2,0.4,0.4,0.6c0.1,0.1,0.3,0.2,0.6,0.2c0.4,0,0.6-0.1,0.8-0.4c0.1-0.3,0.2-0.7,0.2-1.3V5.8h-1.1V4.6h2.5V9.2z"/>
		</g>
		<g class="st1">
			<path class="st2" d="M15.1,6.9c0,0.2,0,0.3,0.1,0.5c0,0.2,0.1,0.3,0.2,0.4S15.6,8,15.7,8c0.1,0.1,0.3,0.1,0.5,0.1
				c0.4,0,0.6-0.1,0.8-0.3c0.1-0.2,0.2-0.5,0.2-0.8c0-0.2,0-0.3-0.1-0.5c0-0.1-0.1-0.3-0.2-0.4S16.6,6,16.5,5.9s-0.4-0.2-0.6-0.3
				c-0.4-0.2-0.6-0.3-0.9-0.5s-0.4-0.3-0.6-0.5c-0.2-0.2-0.3-0.4-0.3-0.6c-0.1-0.2-0.1-0.5-0.1-0.8c0-0.3,0.1-0.6,0.2-0.9
				c0.1-0.3,0.3-0.5,0.4-0.7c0.2-0.2,0.4-0.3,0.7-0.5c0.3-0.1,0.6-0.2,1-0.2c0.5,0,0.8,0.1,1.1,0.2c0.3,0.1,0.5,0.3,0.7,0.5
				c0.2,0.2,0.3,0.5,0.4,0.7c0.1,0.3,0.1,0.5,0.1,0.8h-1.4c0-0.1,0-0.2,0-0.4c0-0.1-0.1-0.3-0.1-0.4s-0.2-0.2-0.3-0.3
				c-0.1-0.1-0.3-0.1-0.5-0.1c-0.3,0-0.5,0.1-0.6,0.3c-0.1,0.2-0.2,0.4-0.2,0.7c0,0.1,0,0.3,0.1,0.4c0,0.1,0.1,0.2,0.2,0.3
				C15.7,3.8,15.8,3.9,16,4c0.2,0.1,0.4,0.2,0.6,0.3c0.4,0.2,0.7,0.3,0.9,0.5C17.8,5,18,5.2,18.2,5.4c0.2,0.2,0.3,0.4,0.4,0.7
				s0.1,0.6,0.1,0.9c0,0.3,0,0.6-0.1,0.9c-0.1,0.3-0.3,0.5-0.5,0.7S17.6,9,17.3,9.1s-0.7,0.2-1.1,0.2c-0.5,0-0.9-0.1-1.2-0.2
				c-0.3-0.1-0.6-0.3-0.8-0.5c-0.2-0.2-0.3-0.5-0.4-0.8c-0.1-0.3-0.1-0.6-0.1-0.9H15.1z"/>
		</g>
	</g>
	<g class="st1">
		<path d="M22.5,1h2.1c1,0,1.8,0.3,2.2,1c0.4,0.7,0.7,1.6,0.7,2.9c0,0.7-0.1,1.3-0.2,1.8c-0.1,0.5-0.3,1-0.5,1.3
			c-0.2,0.4-0.5,0.6-0.9,0.8c-0.4,0.2-0.9,0.3-1.4,0.3h-2V1z M24,7.9h0.5c0.3,0,0.5-0.1,0.7-0.2c0.2-0.1,0.4-0.3,0.5-0.5
			c0.1-0.2,0.2-0.6,0.3-0.9C26,5.9,26,5.4,26,4.9c0-0.5,0-0.9-0.1-1.2c0-0.3-0.1-0.6-0.2-0.8c-0.1-0.2-0.3-0.4-0.5-0.5
			c-0.2-0.1-0.4-0.2-0.7-0.2H24V7.9z"/>
	</g>
	<g class="st1">
		<path d="M29.8,7l-0.4,2H28L29.8,1h1.9l1.9,8.1h-1.5l-0.4-2H29.8z M31.4,5.8c-0.2-0.8-0.3-1.5-0.4-2c-0.1-0.6-0.2-1-0.3-1.4h0
			c0,0.4-0.1,0.9-0.3,1.5c-0.1,0.6-0.3,1.3-0.4,2H31.4z"/>
	</g>
	<g class="st1">
		<path d="M35.6,6.8c0,0.2,0,0.3,0.1,0.5c0,0.2,0.1,0.3,0.2,0.4S36,7.9,36.2,8c0.1,0.1,0.3,0.1,0.5,0.1c0.4,0,0.6-0.1,0.8-0.3
			c0.1-0.2,0.2-0.5,0.2-0.8c0-0.2,0-0.3-0.1-0.5c0-0.1-0.1-0.3-0.2-0.4s-0.2-0.2-0.4-0.3s-0.4-0.2-0.6-0.3c-0.4-0.2-0.6-0.3-0.9-0.5
			s-0.4-0.3-0.6-0.5c-0.2-0.2-0.3-0.4-0.3-0.6c-0.1-0.2-0.1-0.5-0.1-0.8c0-0.3,0.1-0.6,0.2-0.9c0.1-0.3,0.3-0.5,0.4-0.7
			c0.2-0.2,0.4-0.3,0.7-0.5c0.3-0.1,0.6-0.2,1-0.2c0.5,0,0.8,0.1,1.1,0.2c0.3,0.1,0.5,0.3,0.7,0.5c0.2,0.2,0.3,0.5,0.4,0.7
			c0.1,0.3,0.1,0.5,0.1,0.8h-1.4c0-0.1,0-0.2,0-0.4c0-0.1-0.1-0.3-0.1-0.4s-0.2-0.2-0.3-0.3C36.9,2,36.8,2,36.6,2
			c-0.3,0-0.5,0.1-0.6,0.3c-0.1,0.2-0.2,0.4-0.2,0.7c0,0.1,0,0.3,0.1,0.4c0,0.1,0.1,0.2,0.2,0.3c0.1,0.1,0.2,0.2,0.4,0.3
			C36.6,4,36.8,4.1,37,4.2c0.4,0.2,0.7,0.3,0.9,0.5c0.3,0.2,0.5,0.4,0.7,0.6C38.8,5.5,38.9,5.7,39,6s0.1,0.6,0.1,0.9
			c0,0.3,0,0.6-0.1,0.9c-0.1,0.3-0.3,0.5-0.5,0.7S38,8.9,37.7,9S37,9.2,36.6,9.2c-0.5,0-0.9-0.1-1.2-0.2c-0.3-0.1-0.6-0.3-0.8-0.5
			c-0.2-0.2-0.3-0.5-0.4-0.8c-0.1-0.3-0.1-0.6-0.1-0.9H35.6z"/>
	</g>
	<g class="st1">
		<path d="M40.1,1h1.5v3.2h2V1H45v8.1h-1.5V5.4h-2v3.6h-1.5V1z"/>
		<path d="M46.4,1h2.5c0.7,0,1.3,0.2,1.6,0.5S51,2.4,51,3c0,0.3,0,0.5-0.1,0.7c-0.1,0.2-0.1,0.4-0.2,0.5c-0.1,0.1-0.2,0.2-0.3,0.3
			c-0.1,0.1-0.2,0.2-0.3,0.2c0.1,0.1,0.3,0.1,0.4,0.2c0.1,0.1,0.3,0.2,0.4,0.4s0.2,0.3,0.3,0.6c0.1,0.2,0.1,0.5,0.1,0.8
			c0,0.4-0.1,0.7-0.2,1C51,8,50.8,8.3,50.6,8.5c-0.2,0.2-0.5,0.4-0.8,0.5c-0.3,0.1-0.6,0.2-1,0.2h-2.4V1z M48.5,4.2
			c0.4,0,0.8-0.1,0.9-0.3s0.2-0.4,0.2-0.8c0-0.7-0.4-1-1.1-1h-0.7v2.1H48.5z M47.8,7.9h0.9c0.4,0,0.6-0.1,0.8-0.3
			c0.2-0.2,0.3-0.5,0.3-1c0-0.4-0.1-0.8-0.3-1c-0.2-0.2-0.5-0.3-1-0.3h-0.7V7.9z"/>
	</g>
	<g class="st1">
		<path d="M62.5,7l-0.4,2h-1.5L62.6,1h1.9l1.9,8.1h-1.5l-0.4-2H62.5z M64.2,5.8c-0.2-0.8-0.3-1.5-0.4-2s-0.2-1-0.3-1.4h0
			c0,0.4-0.1,0.9-0.3,1.5c-0.1,0.6-0.3,1.3-0.4,2H64.2z"/>
	</g>
	<g class="st1">
		<path d="M68.5,5.6v3.5h-1.4V1h2.5c0.7,0,1.3,0.2,1.7,0.6s0.6,0.9,0.6,1.7c0,0.3,0,0.6-0.1,0.8s-0.2,0.4-0.3,0.5
			c-0.1,0.1-0.2,0.3-0.3,0.4S70.9,5,70.8,5c0.3,0.2,0.5,0.4,0.7,0.7C71.6,6,71.7,6.4,71.7,7v0.3c0,0.2,0,0.4,0,0.6
			c0,0.2,0,0.3,0,0.4s0,0.2,0,0.4c0,0.1,0,0.2,0,0.3h-1.4c-0.1-0.2-0.1-0.4-0.1-0.7c0-0.3,0-0.6,0-1V7.1c0-0.3,0-0.5-0.1-0.7
			c0-0.2-0.1-0.3-0.2-0.4c-0.1-0.1-0.2-0.2-0.4-0.2c-0.2-0.1-0.3-0.1-0.6-0.1H68.5z M68.5,4.4h0.7c0.4,0,0.8-0.1,0.9-0.3
			c0.2-0.2,0.3-0.5,0.3-0.9c0-0.4-0.1-0.6-0.3-0.8c-0.2-0.2-0.4-0.3-0.8-0.3h-0.8V4.4z"/>
		<path d="M73,1h2.1c1,0,1.8,0.3,2.2,1S78,3.6,78,4.9c0,0.7-0.1,1.3-0.2,1.8c-0.1,0.5-0.3,1-0.5,1.3c-0.2,0.4-0.5,0.6-0.9,0.8
			C76,9,75.5,9.1,75,9.1h-2V1z M74.4,7.9h0.5c0.3,0,0.5-0.1,0.7-0.2c0.2-0.1,0.4-0.3,0.5-0.5s0.2-0.6,0.3-0.9s0.1-0.8,0.1-1.4
			c0-0.5,0-0.9-0.1-1.2c0-0.3-0.1-0.6-0.2-0.8c-0.1-0.2-0.3-0.4-0.5-0.5c-0.2-0.1-0.4-0.2-0.7-0.2h-0.5V7.9z"/>
	</g>
	<g>
		<defs>
			<rect id="SVGID_1_" x="52" y="0.8" width="8.3" height="8.3"/>
		</defs>
		<clipPath id="SVGID_00000078010942529366353740000012515686069196508860_">
			<use xlink:href="#SVGID_1_"  style="overflow:visible;"/>
		</clipPath>
		<g style="clip-path:url(#SVGID_00000078010942529366353740000012515686069196508860_);">
			<g>
				<path d="M58.3,6.1c-0.1,0-0.1,0-0.2,0C58,6,57.9,5.8,58,5.6c0.1-0.2,0.1-0.4,0.1-0.7c0-1.1-0.8-1.9-1.9-1.9
					c-0.2,0-0.4-0.2-0.4-0.4s0.2-0.4,0.4-0.4c1.5,0,2.7,1.2,2.7,2.7c0,0.3-0.1,0.6-0.2,0.9C58.7,6.1,58.5,6.1,58.3,6.1z"/>
				<path d="M56.2,7.6c-1.5,0-2.7-1.2-2.7-2.7c0-0.8,0.4-1.6,1-2.1c0.2-0.1,0.4-0.1,0.6,0.1c0.1,0.2,0.1,0.4-0.1,0.6
					c-0.5,0.3-0.7,0.9-0.7,1.5c0,1.1,0.8,1.9,1.9,1.9c0.4,0,0.8-0.1,1.1-0.3c0.2-0.1,0.4-0.1,0.5,0.1s0.1,0.4-0.1,0.5
					C57.3,7.5,56.7,7.7,56.2,7.6L56.2,7.6L56.2,7.6L56.2,7.6z"/>
				<path d="M55.3,4.9c-0.1,0-0.1,0-0.2,0c-0.2-0.1-0.3-0.3-0.2-0.5c0.2-0.3,0.4-0.6,0.8-0.7c0.2-0.1,0.4,0.1,0.5,0.2
					c0.1,0.2-0.1,0.4-0.2,0.5c-0.2,0.1-0.3,0.2-0.3,0.3C55.6,4.9,55.5,4.9,55.3,4.9L55.3,4.9L55.3,4.9z"/>
				<path d="M56.2,6.2c-0.3,0-0.6-0.1-0.8-0.3c-0.2-0.1-0.2-0.4-0.1-0.5c0.1-0.2,0.4-0.2,0.5-0.1c0.1,0.1,0.2,0.1,0.3,0.1
					c0.3,0,0.5-0.2,0.5-0.5c0-0.1,0-0.2-0.1-0.3c-0.1-0.2-0.1-0.4,0.1-0.5s0.4-0.1,0.5,0.1c0.1,0.2,0.2,0.4,0.2,0.7
					C57.5,5.7,56.9,6.2,56.2,6.2L56.2,6.2L56.2,6.2z"/>
				<path d="M56.2,9.1c-2.3,0-4.1-1.9-4.1-4.1s1.8-4.1,4.1-4.1s4.1,1.8,4.1,4.1S58.5,9.1,56.2,9.1L56.2,9.1z M56.2,1.8
					C54.4,1.8,53,3.2,53,5s1.4,3.2,3.2,3.2s3.2-1.4,3.2-3.2S58,1.8,56.2,1.8C56.2,1.8,56.2,1.8,56.2,1.8z"/>
			</g>
		</g>
	</g>
</g>
</svg>
