<?xml version="1.0" encoding="UTF-8"?>
<svg id="Layer_2" data-name="Layer 2" xmlns="http://www.w3.org/2000/svg" xmlns:xlink="http://www.w3.org/1999/xlink" viewBox="0 0 77.98 8.47">
  <defs>
    <style>
      .cls-1 {
        fill: #fff;
      }

      .cls-2 {
        isolation: isolate;
      }

      .cls-3 {
        clip-path: url(#clippath);
      }

      .cls-4 {
        fill: none;
      }

      .cls-5 {
        fill: #8a1538;
      }
    </style>
    <clipPath id="clippath">
      <rect class="cls-4" x="52.05" y="0" width="8.27" height="8.27"/>
    </clipPath>
  </defs>
  <g id="Layer_2-2" data-name="Layer 2">
    <g>
      <rect class="cls-5" y=".09" width="19.34" height="8.09" rx="4.04" ry="4.04"/>
      <g class="cls-2">
        <g class="cls-2">
          <path class="cls-1" d="m1.54,8.32V.2h1.64c.42,1.12.76,2.03,1.02,2.74s.47,1.26.62,1.67c.15.41.26.71.32.91.06.19.11.34.13.43h.01c-.03-.49-.05-1.03-.06-1.61,0-.59-.01-1.22-.01-1.89V.2h1.31v8.12h-1.58c-.43-1.2-.78-2.17-1.05-2.91-.27-.74-.48-1.33-.64-1.76-.16-.43-.27-.74-.33-.93-.06-.19-.11-.33-.13-.43h-.01c.03.5.05,1.06.05,1.66,0,.6,0,1.27,0,2v2.36h-1.31Z"/>
        </g>
        <g class="cls-2">
          <path class="cls-1" d="m12.77,8.32h-1.1c-.02-.13-.03-.24-.04-.34-.01-.1-.02-.22-.03-.35-.18.33-.41.55-.68.67-.27.12-.58.17-.92.17-.42,0-.78-.09-1.08-.28-.3-.18-.54-.45-.72-.81-.18-.36-.32-.79-.4-1.3s-.12-1.1-.12-1.76c0-1.48.24-2.56.72-3.23.48-.67,1.16-1.01,2.03-1.01.37,0,.68.05.94.14.26.1.47.22.64.37.17.15.31.31.41.49.1.18.18.36.23.53s.08.34.1.49c.01.15.02.26.03.34h-1.43c0-.08-.02-.18-.04-.31-.02-.13-.06-.25-.13-.38-.06-.12-.16-.23-.28-.32s-.29-.13-.51-.13c-.23,0-.43.07-.58.22s-.28.36-.37.62c-.09.27-.16.59-.19.95-.04.37-.05.77-.05,1.21,0,.47.02.89.05,1.25s.09.67.18.92c.09.25.21.44.35.56.15.13.34.19.57.19.38,0,.65-.15.79-.44.14-.3.22-.74.22-1.34v-.46h-1.09v-1.24h2.53v4.56Z"/>
        </g>
        <g class="cls-2">
          <path class="cls-1" d="m15.11,6.06c.02.17.05.33.1.48.05.15.11.29.2.4s.19.21.32.28c.13.07.29.1.47.1.36,0,.61-.1.76-.3.14-.2.22-.45.22-.76,0-.17-.02-.32-.07-.46-.04-.14-.12-.26-.22-.38s-.24-.24-.41-.35-.39-.23-.64-.35c-.35-.17-.65-.33-.89-.49s-.44-.34-.6-.53c-.16-.19-.27-.4-.34-.64-.07-.23-.11-.5-.11-.8,0-.32.05-.61.16-.88.1-.27.25-.5.45-.69.2-.19.44-.34.72-.45.28-.11.61-.16.98-.16.46,0,.83.07,1.13.21.3.14.53.32.7.54.17.22.29.47.36.74.07.27.11.54.11.8h-1.43c0-.12-.02-.25-.05-.38-.02-.13-.07-.26-.13-.37s-.15-.21-.27-.29c-.12-.08-.27-.11-.45-.11-.29,0-.5.08-.63.25-.13.17-.2.39-.2.67,0,.14.02.27.05.39.04.12.1.22.19.32.09.1.22.19.37.29.16.1.35.2.59.31.36.17.67.34.94.51.27.17.49.36.66.57.17.21.3.44.38.7s.13.56.13.89-.05.62-.15.91-.25.53-.46.74-.47.38-.78.5-.68.19-1.12.19c-.47,0-.86-.07-1.18-.2-.31-.14-.56-.32-.75-.55-.19-.23-.33-.49-.41-.77-.09-.29-.14-.58-.14-.89h1.44Z"/>
        </g>
      </g>
      <g class="cls-2">
        <g class="cls-2">
          <path d="m22.5.12h2.11c1.04,0,1.78.33,2.23.99.45.66.67,1.63.67,2.91,0,.69-.05,1.29-.16,1.82-.1.52-.27.96-.51,1.32-.24.36-.55.63-.93.81-.38.18-.86.28-1.42.28h-2V.12Zm1.46,6.94h.52c.29,0,.53-.06.73-.17.2-.11.35-.29.47-.53.12-.24.21-.56.26-.94.05-.38.08-.85.08-1.39,0-.46-.02-.87-.07-1.21-.05-.34-.13-.62-.25-.84-.12-.22-.27-.38-.47-.49-.2-.1-.44-.16-.74-.16h-.53v5.72Z"/>
        </g>
        <g class="cls-2">
          <path d="m29.81,6.2l-.41,2.04h-1.45L29.83.12h1.88l1.9,8.12h-1.52l-.4-2.04h-1.88Zm1.62-1.26c-.15-.78-.29-1.46-.4-2.03-.12-.57-.21-1.05-.27-1.43h-.04c-.05.38-.13.86-.25,1.45-.12.59-.26,1.26-.41,2.02h1.37Z"/>
        </g>
        <g class="cls-2">
          <path d="m35.55,5.98c.02.17.05.33.1.48.05.15.11.29.2.4s.19.21.32.28c.13.07.29.1.47.1.36,0,.61-.1.76-.3.14-.2.22-.45.22-.76,0-.17-.02-.32-.07-.46-.04-.14-.12-.26-.22-.38s-.24-.24-.41-.35-.39-.23-.64-.35c-.35-.17-.65-.33-.89-.49s-.44-.34-.6-.53c-.16-.19-.27-.4-.34-.64-.07-.23-.11-.5-.11-.8,0-.32.05-.61.16-.88.1-.27.25-.5.45-.69.2-.19.44-.34.72-.45.28-.11.61-.16.98-.16.46,0,.83.07,1.13.21.3.14.53.32.7.54.17.22.29.47.36.74.07.27.11.54.11.8h-1.43c0-.12-.02-.25-.05-.38-.02-.13-.07-.26-.13-.37s-.15-.21-.27-.29c-.12-.08-.27-.11-.45-.11-.29,0-.5.08-.63.25-.13.17-.2.39-.2.67,0,.14.02.27.05.39.04.12.1.22.19.32.09.1.22.19.37.29.16.1.35.2.59.31.36.17.67.34.94.51.27.17.49.36.66.57.17.21.3.44.38.7s.13.56.13.89-.05.62-.15.91-.25.53-.46.74-.47.38-.78.5-.68.19-1.12.19c-.47,0-.86-.07-1.18-.2-.31-.14-.56-.32-.75-.55-.19-.23-.33-.49-.41-.77-.09-.29-.14-.58-.14-.89h1.44Z"/>
        </g>
        <g class="cls-2">
          <path d="m40.12.12h1.45v3.22h1.96V.12h1.46v8.12h-1.46v-3.65h-1.96v3.65h-1.45V.12Z"/>
          <path d="m46.39.12h2.47c.71,0,1.25.18,1.63.55s.56.87.56,1.52c0,.26-.03.48-.08.67-.06.19-.13.36-.22.49-.09.14-.19.25-.3.34-.11.09-.22.15-.34.19.14.06.29.13.43.23.14.1.27.23.38.38s.2.35.27.57c.07.22.1.49.1.79,0,.38-.06.73-.18,1.03-.12.3-.29.55-.5.75-.22.2-.47.35-.77.46-.3.1-.63.16-.99.16h-2.45V.12Zm2.12,3.24c.45,0,.75-.09.91-.26s.23-.43.23-.79c0-.69-.36-1.03-1.09-1.03h-.74v2.08h.7Zm-.7,3.76h.86c.36,0,.64-.1.84-.3.2-.2.3-.53.3-.98,0-.42-.1-.75-.29-.98-.19-.23-.53-.35-1.01-.35h-.71v2.62Z"/>
        </g>
        <g class="cls-2">
          <path d="m62.54,6.2l-.41,2.04h-1.45L62.56.12h1.88l1.9,8.12h-1.52l-.4-2.04h-1.88Zm1.62-1.26c-.15-.78-.29-1.46-.4-2.03s-.21-1.05-.27-1.43h-.04c-.05.38-.13.86-.25,1.45-.12.59-.26,1.26-.41,2.02h1.37Z"/>
        </g>
        <g class="cls-2">
          <path d="m68.5,4.78v3.47h-1.44V.12h2.48c.74,0,1.32.19,1.72.56s.6.93.6,1.66c0,.3-.04.55-.11.76s-.16.39-.26.54c-.1.15-.22.27-.34.35s-.24.15-.34.19c.31.15.54.38.7.68.15.3.23.75.23,1.35v.32c0,.23,0,.43,0,.59,0,.16.01.31.02.44s.02.25.04.35c.01.11.03.21.04.32h-1.4c-.06-.18-.1-.43-.11-.73-.01-.3-.02-.63-.02-.98v-.29c0-.27-.02-.5-.05-.69-.04-.19-.1-.34-.19-.45-.09-.11-.21-.19-.36-.25-.15-.05-.34-.08-.58-.08h-.62Zm0-1.18h.68c.44,0,.75-.1.94-.29.19-.19.28-.49.28-.9,0-.36-.09-.64-.26-.83-.17-.19-.45-.29-.82-.29h-.83v2.3Z"/>
          <path d="m72.96.12h2.11c1.04,0,1.78.33,2.23.99s.67,1.63.67,2.91c0,.69-.05,1.29-.16,1.82-.1.52-.27.96-.51,1.32-.24.36-.55.63-.93.81-.38.18-.86.28-1.42.28h-2V.12Zm1.46,6.94h.52c.29,0,.53-.06.73-.17.2-.11.35-.29.47-.53s.21-.56.26-.94.08-.85.08-1.39c0-.46-.02-.87-.07-1.21-.05-.34-.13-.62-.25-.84-.12-.22-.27-.38-.47-.49-.2-.1-.44-.16-.74-.16h-.53v5.72Z"/>
        </g>
      </g>
      <g class="cls-3">
        <g>
          <path d="m58.33,5.31c-.06,0-.09,0-.15-.03-.21-.09-.29-.29-.23-.5.09-.21.12-.44.12-.67,0-1.06-.85-1.91-1.91-1.91-.21,0-.38-.18-.38-.38s.18-.38.38-.38c1.47,0,2.67,1.2,2.67,2.67,0,.32-.06.64-.18.94,0,.18-.18.26-.32.26Z"/>
          <path d="m56.19,6.8c-1.47,0-2.67-1.2-2.67-2.67,0-.82.38-1.58,1.03-2.11.18-.12.41-.09.56.06.12.18.09.41-.06.56-.47.35-.73.91-.73,1.5,0,1.06.85,1.91,1.91,1.91.38,0,.76-.12,1.06-.32.18-.12.41-.06.53.12s.06.41-.12.53c-.44.29-.97.44-1.5.44h0v-.02h0Z"/>
          <path d="m55.31,4.11c-.06,0-.12,0-.18-.03-.21-.09-.26-.32-.18-.53.15-.32.44-.56.76-.67.21-.06.41.06.5.23.06.21-.06.41-.23.5-.15.06-.26.15-.32.26-.06.15-.21.23-.35.23h0Z"/>
          <path d="m56.16,5.4c-.29,0-.56-.09-.76-.26-.18-.12-.21-.38-.09-.53.12-.18.38-.21.53-.09.09.06.21.12.32.12.29,0,.53-.23.53-.53,0-.09-.03-.21-.09-.29-.12-.18-.06-.41.12-.53s.41-.06.53.12c.12.21.21.44.21.7,0,.73-.59,1.29-1.29,1.29h0Z"/>
          <path d="m56.19,8.27c-2.29,0-4.13-1.85-4.13-4.13S53.91.01,56.19.01s4.13,1.85,4.13,4.13-1.85,4.13-4.13,4.13h0Zm0-7.33c-1.76,0-3.2,1.44-3.2,3.2s1.44,3.2,3.2,3.2,3.2-1.44,3.2-3.2-1.44-3.2-3.2-3.2h0Z"/>
        </g>
      </g>
    </g>
  </g>
</svg>