<?xml version="1.0" encoding="UTF-8"?>
<svg id="Layer_2" data-name="Layer 2" xmlns="http://www.w3.org/2000/svg" xmlns:xlink="http://www.w3.org/1999/xlink" viewBox="0 0 78.41 13.26">
  <defs>
    <style>
      .cls-1 {
        letter-spacing: 0em;
      }

      .cls-2 {
        letter-spacing: .02em;
      }

      .cls-3, .cls-4, .cls-5 {
        isolation: isolate;
      }

      .cls-6 {
        letter-spacing: 0em;
      }

      .cls-4, .cls-5 {
        font-family: AcuminProCond-Bold, 'Acumin Pro Condensed';
        font-size: 12px;
        font-weight: 700;
      }

      .cls-7 {
        letter-spacing: 0em;
      }

      .cls-8 {
        clip-path: url(#clippath);
      }

      .cls-9 {
        fill: none;
      }

      .cls-10 {
        fill: #8a1538;
      }

      .cls-5 {
        fill: #fff;
      }
    </style>
    <clipPath id="clippath">
      <rect class="cls-9" x="52.05" y="1.8" width="8.27" height="8.27"/>
    </clipPath>
  </defs>
  <g id="Layer_2-2" data-name="Layer 2">
    <g id="Layer_1-2" data-name="Layer 1-2">
      <g>
        <g>
          <rect class="cls-10" y="1.89" width="19.34" height="8.09" rx="4.04" ry="4.04"/>
          <g class="cls-3">
            <text class="cls-5" transform="translate(.83 10.12)"><tspan x="0" y="0">N</tspan><tspan class="cls-1" x="6.41" y="0">G</tspan><tspan x="12.58" y="0">S</tspan></text>
          </g>
        </g>
        <g>
          <g class="cls-3">
            <text class="cls-4" transform="translate(21.79 10.04)"><tspan class="cls-6" x="0" y="0">D</tspan><tspan class="cls-2" x="6.1" y="0">A</tspan><tspan class="cls-7" x="12.06" y="0">S</tspan><tspan x="17.62" y="0" xml:space="preserve">HB    </tspan><tspan class="cls-6" x="38.83" y="0">A</tspan><tspan x="44.56" y="0">RD</tspan></text>
          </g>
          <g class="cls-8">
            <g>
              <path d="m58.33,7.11c-.06,0-.09,0-.15-.03-.21-.09-.29-.29-.23-.5.09-.21.12-.44.12-.67,0-1.06-.85-1.91-1.91-1.91-.21,0-.38-.18-.38-.38s.18-.38.38-.38c1.47,0,2.67,1.2,2.67,2.67,0,.32-.06.64-.18.94,0,.18-.18.26-.32.26Z"/>
              <path d="m56.19,8.6c-1.47,0-2.67-1.2-2.67-2.67,0-.82.38-1.58,1.03-2.11.18-.12.41-.09.56.06.12.18.09.41-.06.56-.47.35-.73.91-.73,1.5,0,1.06.85,1.91,1.91,1.91.38,0,.76-.12,1.06-.32.18-.12.41-.06.53.12s.06.41-.12.53c-.44.29-.97.44-1.5.44h0v-.02Z"/>
              <path d="m55.31,5.91c-.06,0-.12,0-.18-.03-.21-.09-.26-.32-.18-.53.15-.32.44-.56.76-.67.21-.06.41.06.5.23.06.21-.06.41-.23.5-.15.06-.26.15-.32.26-.06.15-.21.23-.35.23h0Z"/>
              <path d="m56.16,7.2c-.29,0-.56-.09-.76-.26-.18-.12-.21-.38-.09-.53.12-.18.38-.21.53-.09.09.06.21.12.32.12.29,0,.53-.23.53-.53,0-.09-.03-.21-.09-.29-.12-.18-.06-.41.12-.53s.41-.06.53.12c.12.21.21.44.21.7,0,.73-.59,1.29-1.29,1.29h0Z"/>
              <path d="m56.19,10.07c-2.29,0-4.13-1.85-4.13-4.13s1.85-4.13,4.13-4.13,4.13,1.85,4.13,4.13-1.85,4.13-4.13,4.13h0Zm0-7.33c-1.76,0-3.2,1.44-3.2,3.2s1.44,3.2,3.2,3.2,3.2-1.44,3.2-3.2-1.44-3.2-3.2-3.2h0Z"/>
            </g>
          </g>
        </g>
      </g>
    </g>
  </g>
</svg>